<?xml version="1.0" standalone="yes"?>
<svg xmlns="http://www.w3.org/2000/svg" width="1280" height="687">
<path style="fill:#010101; stroke:none;" d="M491 0C493.604 8.22815 499.301 15.5493 503.573 23C511.03 36.0085 518.394 49.068 525.989 62C548.987 101.157 571.64 140.564 594.15 180C657.683 291.305 722.092 402.153 786.424 513C806.142 546.974 825.707 581.026 845.424 615C857.26 635.392 871.022 655.654 881 677L883 677C903.033 638.967 925.995 602.184 947.576 565C993.172 486.436 1038.63 407.78 1083.85 329C1100.91 299.284 1118.32 269.769 1135.28 240C1142.77 226.854 1152.01 213.891 1158 200L1057 200L1029 200C1025.3 200 1019.81 199 1016.39 200.603C1011.8 202.754 1008.69 211.771 1006.28 216C998.484 229.706 990.71 243.477 982.6 257C959.646 295.279 937.778 334.278 915.579 373C908.299 385.698 900.858 398.302 893.579 411C889.895 417.426 885.24 423.922 883 431L881 431C877.652 419.4 868.998 408.437 863 398C850.527 376.297 837.495 354.857 825.309 333C783.557 258.114 740.314 183.763 696.603 110C681.102 83.8405 666.388 57.2188 650.989 31C646.894 24.0281 642.876 17.0123 638.85 10C637.177 7.0849 635.585 2.88025 632.621 1.02777C629.544 -0.895386 624.465 0 621 0L594 0L491 0z"/>
<path style="fill:#fd0303; stroke:none;" d="M1072 104L1172 104L1200 104C1203.76 104 1209.16 104.963 1212.67 103.397C1215.54 102.116 1217.08 98.5502 1218.6 96C1222.14 90.0459 1225.48 83.974 1228.99 78C1239.11 60.772 1249.08 43.4199 1258.86 26C1263.6 17.5608 1270.11 9.28595 1273 0L1174 0L1145 0C1141.18 0 1135.79 -0.949219 1132.21 0.603394C1129.31 1.86346 1127.91 5.44635 1126.4 8C1122.86 13.9599 1119.57 20.0543 1116 26C1105.72 43.1366 1096.08 60.6698 1086.13 78C1081.32 86.3843 1074.7 94.6418 1072 104z"/>
<path style="fill:#010101; stroke:none;" d="M400 1C388.792 17.9922 379.283 36.346 369.15 54C352.679 82.6946 336.186 111.38 319.576 140C268.747 227.578 218.403 315.423 167.576 403C131.441 465.26 95.3823 527.549 59.5787 590C47.5127 611.047 35.0144 631.847 23.1389 653C18.482 661.295 12.767 669.258 9 678L113 678L140 678C143.301 678 148.497 678.952 151.366 676.972C154.624 674.724 156.49 669.332 158.424 666C162.88 658.322 167.448 650.71 171.85 643C187.278 615.974 202.447 588.685 218.449 562C260.012 492.69 299.618 422.09 339.85 352C353.276 328.611 367.008 305.396 380.421 282C386.99 270.543 394.898 259.189 400 247C408.658 259.123 415.462 273.058 422.85 286C435.255 307.734 447.863 329.356 460.424 351C499.244 417.886 539.402 484.255 576.694 552C593.2 581.984 610.944 611.323 628 641L642.421 666C644.359 669.379 646.28 674.734 649.61 676.972C652.528 678.934 657.662 678 661 678L688 678L792 678C784.816 661.35 773.455 645.747 764.427 630C744.331 594.947 723.967 560.045 703.85 525C643.875 420.515 584.029 315.882 523.011 212C496.14 166.253 468.889 120.475 443.306 74C434.581 58.1519 425.119 42.7109 416.15 27C411.329 18.5548 407.009 7.79633 400 1z"/>
</svg>
